<mxfile host="Electron" agent="Mozilla/5.0 (Macintosh; Intel Mac OS X 10_15_7) AppleWebKit/537.36 (KHTML, like Gecko) draw.io/26.0.9 Chrome/128.0.6613.186 Electron/32.2.5 Safari/537.36" version="26.0.9">
  <diagram id="C5RBs43oDa-KdzZeNtuy" name="Page-1">
    <mxGraphModel dx="1774" dy="1149" grid="1" gridSize="10" guides="1" tooltips="1" connect="1" arrows="1" fold="1" page="1" pageScale="1" pageWidth="827" pageHeight="1169" math="0" shadow="0">
      <root>
        <mxCell id="WIyWlLk6GJQsqaUBKTNV-0" />
        <mxCell id="WIyWlLk6GJQsqaUBKTNV-1" parent="WIyWlLk6GJQsqaUBKTNV-0" />
        <mxCell id="WIyWlLk6GJQsqaUBKTNV-2" value="" style="rounded=0;html=1;jettySize=auto;orthogonalLoop=1;fontSize=11;endArrow=block;endFill=0;endSize=8;strokeWidth=1;shadow=0;labelBackgroundColor=none;edgeStyle=orthogonalEdgeStyle;entryX=0;entryY=0.5;entryDx=0;entryDy=0;exitX=1;exitY=0.5;exitDx=0;exitDy=0;" parent="WIyWlLk6GJQsqaUBKTNV-1" source="WIyWlLk6GJQsqaUBKTNV-3" target="B772fEMy6a9WWAeFyky0-48" edge="1">
          <mxGeometry relative="1" as="geometry">
            <mxPoint x="420" y="170" as="targetPoint" />
            <Array as="points">
              <mxPoint x="480" y="390" />
              <mxPoint x="480" y="390" />
            </Array>
          </mxGeometry>
        </mxCell>
        <mxCell id="B772fEMy6a9WWAeFyky0-1" value="Внесение медицинских данных" style="edgeLabel;html=1;align=center;verticalAlign=middle;resizable=0;points=[];" parent="WIyWlLk6GJQsqaUBKTNV-2" vertex="1" connectable="0">
          <mxGeometry x="-0.3042" y="-1" relative="1" as="geometry">
            <mxPoint x="3" y="-1" as="offset" />
          </mxGeometry>
        </mxCell>
        <mxCell id="WIyWlLk6GJQsqaUBKTNV-3" value="Сотрудник" style="rounded=1;whiteSpace=wrap;html=1;fontSize=12;glass=0;strokeWidth=1;shadow=0;" parent="WIyWlLk6GJQsqaUBKTNV-1" vertex="1">
          <mxGeometry x="160" y="370" width="120" height="40" as="geometry" />
        </mxCell>
        <mxCell id="3KYIm0FopJ6S2SATS8jW-4" style="edgeStyle=orthogonalEdgeStyle;rounded=0;orthogonalLoop=1;jettySize=auto;html=1;entryX=0.5;entryY=0;entryDx=0;entryDy=0;" edge="1" parent="WIyWlLk6GJQsqaUBKTNV-1" source="WIyWlLk6GJQsqaUBKTNV-6" target="B772fEMy6a9WWAeFyky0-28">
          <mxGeometry relative="1" as="geometry" />
        </mxCell>
        <mxCell id="3KYIm0FopJ6S2SATS8jW-5" value="Передача данных" style="edgeLabel;html=1;align=center;verticalAlign=middle;resizable=0;points=[];" vertex="1" connectable="0" parent="3KYIm0FopJ6S2SATS8jW-4">
          <mxGeometry x="-0.6004" y="1" relative="1" as="geometry">
            <mxPoint as="offset" />
          </mxGeometry>
        </mxCell>
        <mxCell id="WIyWlLk6GJQsqaUBKTNV-6" value="DLH" style="rhombus;whiteSpace=wrap;html=1;shadow=0;fontFamily=Helvetica;fontSize=12;align=center;strokeWidth=1;spacing=6;spacingTop=-4;" parent="WIyWlLk6GJQsqaUBKTNV-1" vertex="1">
          <mxGeometry x="827" y="400" width="100" height="80" as="geometry" />
        </mxCell>
        <mxCell id="3KYIm0FopJ6S2SATS8jW-6" style="edgeStyle=orthogonalEdgeStyle;rounded=0;orthogonalLoop=1;jettySize=auto;html=1;exitX=1;exitY=0.5;exitDx=0;exitDy=0;" edge="1" parent="WIyWlLk6GJQsqaUBKTNV-1" source="B772fEMy6a9WWAeFyky0-13" target="3KYIm0FopJ6S2SATS8jW-8">
          <mxGeometry relative="1" as="geometry">
            <mxPoint x="490" y="470" as="targetPoint" />
          </mxGeometry>
        </mxCell>
        <mxCell id="3KYIm0FopJ6S2SATS8jW-9" value="Работа с данными" style="edgeLabel;html=1;align=center;verticalAlign=middle;resizable=0;points=[];" vertex="1" connectable="0" parent="3KYIm0FopJ6S2SATS8jW-6">
          <mxGeometry x="-0.7417" y="-1" relative="1" as="geometry">
            <mxPoint x="69" as="offset" />
          </mxGeometry>
        </mxCell>
        <mxCell id="B772fEMy6a9WWAeFyky0-13" value="Сотрудник" style="rounded=1;whiteSpace=wrap;html=1;fontSize=12;glass=0;strokeWidth=1;shadow=0;" parent="WIyWlLk6GJQsqaUBKTNV-1" vertex="1">
          <mxGeometry x="160" y="480" width="120" height="40" as="geometry" />
        </mxCell>
        <mxCell id="3KYIm0FopJ6S2SATS8jW-0" style="edgeStyle=orthogonalEdgeStyle;rounded=0;orthogonalLoop=1;jettySize=auto;html=1;exitX=0;exitY=0.5;exitDx=0;exitDy=0;entryX=1;entryY=0.5;entryDx=0;entryDy=0;" edge="1" parent="WIyWlLk6GJQsqaUBKTNV-1" source="B772fEMy6a9WWAeFyky0-28" target="B772fEMy6a9WWAeFyky0-36">
          <mxGeometry relative="1" as="geometry" />
        </mxCell>
        <mxCell id="3KYIm0FopJ6S2SATS8jW-2" value="Передача метаданных" style="edgeLabel;html=1;align=center;verticalAlign=middle;resizable=0;points=[];" vertex="1" connectable="0" parent="3KYIm0FopJ6S2SATS8jW-0">
          <mxGeometry x="0.7082" y="-1" relative="1" as="geometry">
            <mxPoint x="51" y="1" as="offset" />
          </mxGeometry>
        </mxCell>
        <mxCell id="3KYIm0FopJ6S2SATS8jW-1" style="edgeStyle=orthogonalEdgeStyle;rounded=0;orthogonalLoop=1;jettySize=auto;html=1;exitX=0;exitY=0.5;exitDx=0;exitDy=0;entryX=1;entryY=0.5;entryDx=0;entryDy=0;" edge="1" parent="WIyWlLk6GJQsqaUBKTNV-1" source="B772fEMy6a9WWAeFyky0-28" target="B772fEMy6a9WWAeFyky0-29">
          <mxGeometry relative="1" as="geometry" />
        </mxCell>
        <mxCell id="3KYIm0FopJ6S2SATS8jW-3" value="Получение аналитики" style="edgeLabel;html=1;align=center;verticalAlign=middle;resizable=0;points=[];" vertex="1" connectable="0" parent="3KYIm0FopJ6S2SATS8jW-1">
          <mxGeometry x="0.5655" y="-2" relative="1" as="geometry">
            <mxPoint x="26" as="offset" />
          </mxGeometry>
        </mxCell>
        <mxCell id="B772fEMy6a9WWAeFyky0-28" value="Dremio" style="rhombus;whiteSpace=wrap;html=1;shadow=0;fontFamily=Helvetica;fontSize=12;align=center;strokeWidth=1;spacing=6;spacingTop=-4;" parent="WIyWlLk6GJQsqaUBKTNV-1" vertex="1">
          <mxGeometry x="1130" y="680" width="100" height="80" as="geometry" />
        </mxCell>
        <mxCell id="B772fEMy6a9WWAeFyky0-29" value="Power BI" style="rhombus;whiteSpace=wrap;html=1;shadow=0;fontFamily=Helvetica;fontSize=12;align=center;strokeWidth=1;spacing=6;spacingTop=-4;" parent="WIyWlLk6GJQsqaUBKTNV-1" vertex="1">
          <mxGeometry x="750" y="740" width="100" height="80" as="geometry" />
        </mxCell>
        <mxCell id="B772fEMy6a9WWAeFyky0-30" value="" style="rounded=0;html=1;jettySize=auto;orthogonalLoop=1;fontSize=11;endArrow=block;endFill=0;endSize=8;strokeWidth=1;shadow=0;labelBackgroundColor=none;edgeStyle=orthogonalEdgeStyle;entryX=0;entryY=0.5;entryDx=0;entryDy=0;" parent="WIyWlLk6GJQsqaUBKTNV-1" source="B772fEMy6a9WWAeFyky0-32" target="B772fEMy6a9WWAeFyky0-36" edge="1">
          <mxGeometry relative="1" as="geometry">
            <mxPoint x="663" y="520" as="targetPoint" />
            <Array as="points">
              <mxPoint x="590" y="670" />
              <mxPoint x="590" y="670" />
            </Array>
          </mxGeometry>
        </mxCell>
        <mxCell id="B772fEMy6a9WWAeFyky0-31" value="Получение информации о данных\разграничение доменов" style="edgeLabel;html=1;align=center;verticalAlign=middle;resizable=0;points=[];" parent="B772fEMy6a9WWAeFyky0-30" vertex="1" connectable="0">
          <mxGeometry x="-0.3042" y="-1" relative="1" as="geometry">
            <mxPoint x="19" y="-1" as="offset" />
          </mxGeometry>
        </mxCell>
        <mxCell id="B772fEMy6a9WWAeFyky0-32" value="IT отдел" style="rounded=1;whiteSpace=wrap;html=1;fontSize=12;glass=0;strokeWidth=1;shadow=0;" parent="WIyWlLk6GJQsqaUBKTNV-1" vertex="1">
          <mxGeometry x="163" y="650" width="120" height="40" as="geometry" />
        </mxCell>
        <mxCell id="B772fEMy6a9WWAeFyky0-36" value="DataHub" style="rhombus;whiteSpace=wrap;html=1;shadow=0;fontFamily=Helvetica;fontSize=12;align=center;strokeWidth=1;spacing=6;spacingTop=-4;" parent="WIyWlLk6GJQsqaUBKTNV-1" vertex="1">
          <mxGeometry x="750" y="630" width="100" height="80" as="geometry" />
        </mxCell>
        <mxCell id="B772fEMy6a9WWAeFyky0-40" style="edgeStyle=orthogonalEdgeStyle;rounded=0;orthogonalLoop=1;jettySize=auto;html=1;exitX=1;exitY=0.5;exitDx=0;exitDy=0;entryX=0;entryY=0.5;entryDx=0;entryDy=0;" parent="WIyWlLk6GJQsqaUBKTNV-1" source="B772fEMy6a9WWAeFyky0-39" target="B772fEMy6a9WWAeFyky0-29" edge="1">
          <mxGeometry relative="1" as="geometry">
            <Array as="points">
              <mxPoint x="490" y="780" />
              <mxPoint x="490" y="780" />
            </Array>
          </mxGeometry>
        </mxCell>
        <mxCell id="B772fEMy6a9WWAeFyky0-41" value="Получение отчетов" style="edgeLabel;html=1;align=center;verticalAlign=middle;resizable=0;points=[];" parent="B772fEMy6a9WWAeFyky0-40" vertex="1" connectable="0">
          <mxGeometry x="-0.774" y="3" relative="1" as="geometry">
            <mxPoint x="132" y="3" as="offset" />
          </mxGeometry>
        </mxCell>
        <mxCell id="B772fEMy6a9WWAeFyky0-39" value="Бизнес" style="rounded=1;whiteSpace=wrap;html=1;fontSize=12;glass=0;strokeWidth=1;shadow=0;" parent="WIyWlLk6GJQsqaUBKTNV-1" vertex="1">
          <mxGeometry x="163" y="760" width="120" height="40" as="geometry" />
        </mxCell>
        <mxCell id="B772fEMy6a9WWAeFyky0-46" style="edgeStyle=orthogonalEdgeStyle;rounded=0;orthogonalLoop=1;jettySize=auto;html=1;exitX=1;exitY=0.5;exitDx=0;exitDy=0;entryX=0.5;entryY=1;entryDx=0;entryDy=0;" parent="WIyWlLk6GJQsqaUBKTNV-1" source="B772fEMy6a9WWAeFyky0-45" target="B772fEMy6a9WWAeFyky0-29" edge="1">
          <mxGeometry relative="1" as="geometry">
            <Array as="points">
              <mxPoint x="800" y="900" />
            </Array>
          </mxGeometry>
        </mxCell>
        <mxCell id="B772fEMy6a9WWAeFyky0-47" value="Просмотр и анализ данных" style="edgeLabel;html=1;align=center;verticalAlign=middle;resizable=0;points=[];" parent="B772fEMy6a9WWAeFyky0-46" vertex="1" connectable="0">
          <mxGeometry x="-0.6185" y="1" relative="1" as="geometry">
            <mxPoint x="70" y="1" as="offset" />
          </mxGeometry>
        </mxCell>
        <mxCell id="B772fEMy6a9WWAeFyky0-45" value="Аналитик" style="rounded=1;whiteSpace=wrap;html=1;fontSize=12;glass=0;strokeWidth=1;shadow=0;" parent="WIyWlLk6GJQsqaUBKTNV-1" vertex="1">
          <mxGeometry x="163" y="880" width="120" height="40" as="geometry" />
        </mxCell>
        <mxCell id="B772fEMy6a9WWAeFyky0-49" style="edgeStyle=orthogonalEdgeStyle;rounded=0;orthogonalLoop=1;jettySize=auto;html=1;exitX=1;exitY=0.5;exitDx=0;exitDy=0;entryX=0;entryY=0.5;entryDx=0;entryDy=0;" parent="WIyWlLk6GJQsqaUBKTNV-1" source="B772fEMy6a9WWAeFyky0-48" target="WIyWlLk6GJQsqaUBKTNV-6" edge="1">
          <mxGeometry relative="1" as="geometry" />
        </mxCell>
        <mxCell id="3KYIm0FopJ6S2SATS8jW-11" value="Передача данных" style="edgeLabel;html=1;align=center;verticalAlign=middle;resizable=0;points=[];" vertex="1" connectable="0" parent="B772fEMy6a9WWAeFyky0-49">
          <mxGeometry x="-0.7143" y="2" relative="1" as="geometry">
            <mxPoint x="23" y="2" as="offset" />
          </mxGeometry>
        </mxCell>
        <mxCell id="3KYIm0FopJ6S2SATS8jW-14" style="edgeStyle=orthogonalEdgeStyle;rounded=0;orthogonalLoop=1;jettySize=auto;html=1;exitX=0.5;exitY=0;exitDx=0;exitDy=0;entryX=0.5;entryY=1;entryDx=0;entryDy=0;" edge="1" parent="WIyWlLk6GJQsqaUBKTNV-1" source="B772fEMy6a9WWAeFyky0-48" target="3KYIm0FopJ6S2SATS8jW-13">
          <mxGeometry relative="1" as="geometry" />
        </mxCell>
        <mxCell id="3KYIm0FopJ6S2SATS8jW-17" value="Обработка\анализ данных" style="edgeLabel;html=1;align=center;verticalAlign=middle;resizable=0;points=[];" vertex="1" connectable="0" parent="3KYIm0FopJ6S2SATS8jW-14">
          <mxGeometry x="0.1143" relative="1" as="geometry">
            <mxPoint as="offset" />
          </mxGeometry>
        </mxCell>
        <mxCell id="B772fEMy6a9WWAeFyky0-48" value="&lt;p style=&quot;line-height: 18px; white-space: pre;&quot;&gt;&lt;font style=&quot;color: rgb(26, 26, 26);&quot; face=&quot;Helvetica&quot;&gt;PostgreSQL&lt;/font&gt;&lt;/p&gt;" style="rhombus;whiteSpace=wrap;html=1;shadow=0;fontFamily=Helvetica;fontSize=12;align=center;strokeWidth=1;spacing=6;spacingTop=-4;" parent="WIyWlLk6GJQsqaUBKTNV-1" vertex="1">
          <mxGeometry x="520" y="350" width="100" height="80" as="geometry" />
        </mxCell>
        <mxCell id="3KYIm0FopJ6S2SATS8jW-10" style="edgeStyle=orthogonalEdgeStyle;rounded=0;orthogonalLoop=1;jettySize=auto;html=1;exitX=1;exitY=0.5;exitDx=0;exitDy=0;entryX=0;entryY=0.5;entryDx=0;entryDy=0;" edge="1" parent="WIyWlLk6GJQsqaUBKTNV-1" source="3KYIm0FopJ6S2SATS8jW-8" target="WIyWlLk6GJQsqaUBKTNV-6">
          <mxGeometry relative="1" as="geometry" />
        </mxCell>
        <mxCell id="3KYIm0FopJ6S2SATS8jW-8" value="&lt;p style=&quot;line-height: 18px; white-space: pre;&quot;&gt;&lt;font style=&quot;color: rgb(26, 26, 26);&quot; face=&quot;Helvetica&quot;&gt;PostgreSQL&lt;/font&gt;&lt;/p&gt;" style="rhombus;whiteSpace=wrap;html=1;shadow=0;fontFamily=Helvetica;fontSize=12;align=center;strokeWidth=1;spacing=6;spacingTop=-4;" vertex="1" parent="WIyWlLk6GJQsqaUBKTNV-1">
          <mxGeometry x="520" y="460" width="100" height="80" as="geometry" />
        </mxCell>
        <mxCell id="3KYIm0FopJ6S2SATS8jW-12" value="Передача данных" style="edgeLabel;html=1;align=center;verticalAlign=middle;resizable=0;points=[];" vertex="1" connectable="0" parent="WIyWlLk6GJQsqaUBKTNV-1">
          <mxGeometry x="680.0028571428569" y="500" as="geometry" />
        </mxCell>
        <mxCell id="3KYIm0FopJ6S2SATS8jW-15" style="edgeStyle=orthogonalEdgeStyle;rounded=0;orthogonalLoop=1;jettySize=auto;html=1;exitX=1;exitY=0.5;exitDx=0;exitDy=0;entryX=0.5;entryY=0;entryDx=0;entryDy=0;" edge="1" parent="WIyWlLk6GJQsqaUBKTNV-1" source="3KYIm0FopJ6S2SATS8jW-13" target="WIyWlLk6GJQsqaUBKTNV-6">
          <mxGeometry relative="1" as="geometry" />
        </mxCell>
        <mxCell id="3KYIm0FopJ6S2SATS8jW-16" value="Передача данных" style="edgeLabel;html=1;align=center;verticalAlign=middle;resizable=0;points=[];" vertex="1" connectable="0" parent="3KYIm0FopJ6S2SATS8jW-15">
          <mxGeometry x="-0.543" y="-2" relative="1" as="geometry">
            <mxPoint as="offset" />
          </mxGeometry>
        </mxCell>
        <mxCell id="3KYIm0FopJ6S2SATS8jW-13" value="&lt;p style=&quot;line-height: 18px; white-space: pre;&quot;&gt;&lt;font style=&quot;color: rgb(26, 26, 26);&quot; face=&quot;Helvetica&quot;&gt;AI сервис&lt;/font&gt;&lt;/p&gt;" style="rhombus;whiteSpace=wrap;html=1;shadow=0;fontFamily=Helvetica;fontSize=12;align=center;strokeWidth=1;spacing=6;spacingTop=-4;" vertex="1" parent="WIyWlLk6GJQsqaUBKTNV-1">
          <mxGeometry x="520" y="200" width="100" height="80" as="geometry" />
        </mxCell>
      </root>
    </mxGraphModel>
  </diagram>
</mxfile>
